<svg xmlns="http://www.w3.org/2000/svg" width="33.276" height="35.177" viewBox="0 0 33.276 35.177">
  <g id="delete" transform="translate(-13.838)">
    <g id="Groupe_3" data-name="Groupe 3" transform="translate(17.171 6.768)">
      <g id="Groupe_2" data-name="Groupe 2">
        <path id="Tracé_39" data-name="Tracé 39" d="M86.122,98.512l-2.243,25.557H67.437L65.2,98.512l-2.841.249,2.283,26.02a2.4,2.4,0,0,0,2.37,2.14h17.3a2.406,2.406,0,0,0,2.372-2.157l2.282-26Z" transform="translate(-62.354 -98.512)"/>
      </g>
    </g>
    <g id="Groupe_5" data-name="Groupe 5" transform="translate(22.87)">
      <g id="Groupe_4" data-name="Groupe 4">
        <path id="Tracé_40" data-name="Tracé 40" d="M158.132,0H147.674A2.38,2.38,0,0,0,145.3,2.377V6.893h2.852V2.852h9.507V6.893h2.852V2.377A2.379,2.379,0,0,0,158.132,0Z" transform="translate(-145.297)"/>
      </g>
    </g>
    <g id="Groupe_7" data-name="Groupe 7" transform="translate(13.838 5.467)">
      <g id="Groupe_6" data-name="Groupe 6">
        <path id="Tracé_41" data-name="Tracé 41" d="M45.687,79.568H15.264a1.426,1.426,0,0,0,0,2.852H45.687a1.426,1.426,0,1,0,0-2.852Z" transform="translate(-13.838 -79.568)"/>
      </g>
    </g>
  </g>
</svg>
