<svg xmlns="http://www.w3.org/2000/svg" width="37.427" height="33.041" viewBox="0 0 37.427 33.041">
  <g id="like" transform="translate(0 -30)">
    <g id="Groupe_1" data-name="Groupe 1" transform="translate(0 30)">
      <path id="Tracé_38" data-name="Tracé 38" d="M27.486,30a8.861,8.861,0,0,0-5.534,1.913,12.607,12.607,0,0,0-3.238,3.894,12.606,12.606,0,0,0-3.238-3.894A8.861,8.861,0,0,0,9.942,30C4.274,30,0,34.636,0,40.783c0,6.641,5.332,11.185,13.4,18.064,1.371,1.168,2.925,2.492,4.539,3.9a1.17,1.17,0,0,0,1.54,0c1.615-1.412,3.169-2.737,4.54-3.905,8.071-6.878,13.4-11.422,13.4-18.064C37.427,34.636,33.153,30,27.486,30Z" transform="translate(0 -30)" fill="#fff"/>
    </g>
  </g>
</svg>
